<?xml version="1.0" encoding="UTF-8"?>
<svg version="1.1" xmlns="http://www.w3.org/2000/svg" width="222" height="195">
<path d="M0 0 C73.26 0 146.52 0 222 0 C222 64.35 222 128.7 222 195 C148.74 195 75.48 195 0 195 C0 130.65 0 66.3 0 0 Z " fill="#FEFEFE" transform="translate(0,0)"/>
<path d="M0 0 C12.89499311 9.51131998 22.06358863 23.10292434 25.53515625 38.796875 C28.22350172 57.32160852 23.79021554 73.5266623 12.9375 88.5625 C11.978371 89.72515771 10.99984979 90.87216944 10 92 C9.52691406 92.57621094 9.05382812 93.15242188 8.56640625 93.74609375 C-1.43206073 104.94138471 -17.87608169 111.36224504 -32.54296875 112.203125 C-49.84349796 112.42563985 -63.90063674 107.42386331 -77 96 C-77.60328125 95.50242187 -78.2065625 95.00484375 -78.828125 94.4921875 C-90.08913433 84.39785932 -96.30313762 68.13778323 -97.2265625 53.37890625 C-97.61328056 36.2051089 -92.31862377 21.94991101 -81 9 C-80.49082031 8.39671875 -79.98164062 7.7934375 -79.45703125 7.171875 C-58.43097094 -15.87891704 -24.97531987 -15.55717678 0 0 Z " fill="#EDECEC" transform="translate(138,43)"/>
<path d="M0 0 C6.81421311 3.96648226 10.76261239 8.62156477 13.9296875 15.8359375 C15.20868359 24.83154333 14.06885365 32.29849382 8.9296875 39.8359375 C8.2696875 40.4959375 7.6096875 41.1559375 6.9296875 41.8359375 C11.8796875 43.4859375 16.8296875 45.1359375 21.9296875 46.8359375 C21.9296875 52.1159375 21.9296875 57.3959375 21.9296875 62.8359375 C20.78371094 62.48660156 19.63773438 62.13726562 18.45703125 61.77734375 C16.9271626 61.31744458 15.39721019 60.85782396 13.8671875 60.3984375 C13.11501953 60.16833984 12.36285156 59.93824219 11.58789062 59.70117188 C-4.21711431 54.98019637 -19.29009172 56.20303533 -35.0065918 60.35522461 C-37.66818576 60.97520314 -40.37464827 61.38666013 -43.0703125 61.8359375 C-43.0703125 56.8859375 -43.0703125 51.9359375 -43.0703125 46.8359375 C-38.1203125 45.1859375 -33.1703125 43.5359375 -28.0703125 41.8359375 C-29.0396875 40.3921875 -30.0090625 38.9484375 -31.0078125 37.4609375 C-35.7691674 30.36955786 -35.79562659 24.22398167 -35.0703125 15.8359375 C-32.90712582 8.41779002 -27.44873678 3.84932806 -21.0703125 -0.1640625 C-14.59908546 -2.32113818 -6.39976732 -2.42637489 0 0 Z " fill="#C60202" transform="translate(113.0703125,70.1640625)"/>
<path d="M0 0 C12.89499311 9.51131998 22.06358863 23.10292434 25.53515625 38.796875 C28.22350172 57.32160852 23.79021554 73.5266623 12.9375 88.5625 C11.978371 89.72515771 10.99984979 90.87216944 10 92 C9.52691406 92.57621094 9.05382812 93.15242188 8.56640625 93.74609375 C-1.43206073 104.94138471 -17.87608169 111.36224504 -32.54296875 112.203125 C-49.84349796 112.42563985 -63.90063674 107.42386331 -77 96 C-77.60328125 95.50242187 -78.2065625 95.00484375 -78.828125 94.4921875 C-90.08913433 84.39785932 -96.30313762 68.13778323 -97.2265625 53.37890625 C-97.61328056 36.2051089 -92.31862377 21.94991101 -81 9 C-80.49082031 8.39671875 -79.98164062 7.7934375 -79.45703125 7.171875 C-58.43097094 -15.87891704 -24.97531987 -15.55717678 0 0 Z M-72 4 C-72.94552734 4.65548828 -72.94552734 4.65548828 -73.91015625 5.32421875 C-82.99338547 12.21423089 -88.92348836 23.25611996 -92 34 C-92.35578125 35.08152344 -92.7115625 36.16304687 -93.078125 37.27734375 C-94.12898245 41.52084861 -94.34508243 45.33728003 -94.3125 49.6875 C-94.30686035 50.47914551 -94.3012207 51.27079102 -94.29541016 52.08642578 C-93.97608475 67.63852137 -87.89688528 81.82840332 -77 93 C-62.41268851 105.77154824 -48.07872338 109.95473981 -29.13720703 109.14794922 C-14.32218756 108.12237213 -0.29980659 100.23268922 9.4453125 89.2421875 C14.67731918 82.62879292 18.32567367 75.98926898 21 68 C21.24492187 67.30003906 21.48984375 66.60007812 21.7421875 65.87890625 C25.89719047 51.27947801 23.29624426 34.9772073 16.28515625 21.76953125 C14.62786303 19.08232277 12.8794457 16.53527101 11 14 C9.9171875 12.453125 9.9171875 12.453125 8.8125 10.875 C1.62359678 2.76986402 -7.84419321 -2.60044723 -18 -6 C-18.69996094 -6.24492188 -19.39992188 -6.48984375 -20.12109375 -6.7421875 C-38.11374549 -11.8629032 -57.33914644 -6.95237458 -72 4 Z " fill="#151515" transform="translate(138,43)"/>
<path d="M0 0 C1.98 0.66 3.96 1.32 6 2 C6 7.28 6 12.56 6 18 C4.28103516 17.47599609 4.28103516 17.47599609 2.52734375 16.94140625 C0.9974751 16.48150708 -0.53247731 16.02188646 -2.0625 15.5625 C-2.81466797 15.33240234 -3.56683594 15.10230469 -4.34179688 14.86523438 C-20.14680181 10.14425887 -35.21977922 11.36709783 -50.9362793 15.51928711 C-53.59787326 16.13926564 -56.30433577 16.55072263 -59 17 C-59 12.05 -59 7.1 -59 2 C-56.43848317 1.18428782 -53.87587372 0.37233869 -51.3125 -0.4375 C-50.59126953 -0.66759766 -49.87003906 -0.89769531 -49.12695312 -1.13476562 C-48.42119141 -1.35712891 -47.71542969 -1.57949219 -46.98828125 -1.80859375 C-46.34415283 -2.01282959 -45.70002441 -2.21706543 -45.03637695 -2.42749023 C-30.52545654 -6.50710999 -14.06236819 -4.92093089 0 0 Z " fill="#282828" transform="translate(129,115)"/>
<path d="M0 0 C-0.66 0.33 -1.32 0.66 -2 1 C-2 1.66 -2 2.32 -2 3 C-2.98097656 2.84273437 -3.96195312 2.68546875 -4.97265625 2.5234375 C-21.89917962 0.13630924 -37.22862635 2.44239229 -51.5703125 12.15625 C-62.29814131 20.29698183 -69.19334111 29.99391546 -73 43 C-73.391875 44.093125 -73.78375 45.18625 -74.1875 46.3125 C-75.261671 51.18758379 -75.39446549 56.00619424 -75.55859375 60.98828125 C-75.70425781 61.98214844 -75.84992188 62.97601563 -76 64 C-77.485 64.99 -77.485 64.99 -79 66 C-79.68569951 47.40992435 -75.49593351 32.29689954 -63 18 C-62.49082031 17.39671875 -61.98164062 16.7934375 -61.45703125 16.171875 C-45.70529869 -1.09669107 -21.90750684 -5.10112425 0 0 Z " fill="#1F1F1F" transform="translate(120,34)"/>
<path d="M0 0 C12.33258929 -0.49330357 12.33258929 -0.49330357 15.42578125 1.79296875 C17 4 17 4 16.9375 7.5625 C16.00986537 10.96382698 15.71578573 11.96927733 13 14 C10.73828125 14.29296875 10.73828125 14.29296875 8.3125 14.1875 C7.10013672 14.14689453 7.10013672 14.14689453 5.86328125 14.10546875 C5.24839844 14.07066406 4.63351563 14.03585938 4 14 C4 16.64 4 19.28 4 22 C2.68 22 1.36 22 0 22 C0 14.74 0 7.48 0 0 Z " fill="#060000" transform="translate(103,82)"/>
<path d="M0 0 C0 1.32 0 2.64 0 4 C-3.09152119 3.55835412 -5.91998769 3.02783037 -8.875 2 C-15.81478885 -0.22073243 -23.02657811 -0.19406019 -30.25 -0.1875 C-31.17514404 -0.18669434 -32.10028809 -0.18588867 -33.0534668 -0.18505859 C-39.86563077 -0.12417708 -46.35199062 0.44072046 -53 2 C-54.23556641 2.28617187 -54.23556641 2.28617187 -55.49609375 2.578125 C-57.33753252 3.02492123 -59.17028589 3.50738466 -61 4 C-61 2.68 -61 1.36 -61 0 C-58.9170757 -0.64715133 -56.83364461 -1.29267166 -54.75 -1.9375 C-53.58984375 -2.29714844 -52.4296875 -2.65679687 -51.234375 -3.02734375 C-35.89678983 -7.63973349 -14.57743718 -7.28871859 0 0 Z " fill="#ECECEC" transform="translate(133,125)"/>
<path d="M0 0 C0 1.32 0 2.64 0 4 C-1.2375 3.71125 -2.475 3.4225 -3.75 3.125 C-5.4993654 2.74705068 -7.24941323 2.37225121 -9 2 C-9.8353125 1.80921875 -10.670625 1.6184375 -11.53125 1.421875 C-27.60470916 -1.81129207 -43.37782773 -0.5863258 -59 4 C-59 2.68 -59 1.36 -59 0 C-56.9170757 -0.64715133 -54.83364461 -1.29267166 -52.75 -1.9375 C-51.58984375 -2.29714844 -50.4296875 -2.65679687 -49.234375 -3.02734375 C-32.97599005 -7.91664067 -15.80324523 -5.26774841 0 0 Z " fill="#F4F4F4" transform="translate(132,119)"/>
<path d="M0 0 C0.66 0 1.32 0 2 0 C0.59320346 13.98004059 -8.8127441 24.99493919 -19.25 33.75 C-25.46084417 38.36157918 -33.15586526 43 -41 43 C-41 42.34 -41 41.68 -41 41 C-40.09378906 40.64808594 -39.18757813 40.29617187 -38.25390625 39.93359375 C-30.57859279 36.82285824 -24.20729388 33.61993704 -18 28 C-17.13375 27.21625 -16.2675 26.4325 -15.375 25.625 C-14.59125 24.75875 -13.8075 23.8925 -13 23 C-12.45730469 22.40058594 -11.91460937 21.80117187 -11.35546875 21.18359375 C-5.91476761 14.74720874 -3.02534521 7.79054097 0 0 Z " fill="#141414" transform="translate(159,109)"/>
<path d="M0 0 C0.99 0.33 1.98 0.66 3 1 C3.07442057 4.86986958 3.04702186 8.2735915 2 12 C2.7734375 11.72285156 3.546875 11.44570312 4.34375 11.16015625 C5.3853125 10.79792969 6.426875 10.43570313 7.5 10.0625 C8.5209375 9.70285156 9.541875 9.34320313 10.59375 8.97265625 C18.03082399 6.84899636 25.32750011 6.86871207 33 6.9375 C33.96550781 6.94201172 34.93101563 6.94652344 35.92578125 6.95117188 C38.28392089 6.96284583 40.64192602 6.97921979 43 7 C43.495 7.99 43.495 7.99 44 9 C42.76507813 9.02578125 41.53015625 9.0515625 40.2578125 9.078125 C29.77072505 9.39496803 20.00240832 10.52231755 9.8203125 13.0625 C6.57991626 13.85768926 3.29114198 14.45147634 0 15 C0 10.05 0 5.1 0 0 Z " fill="#080808" transform="translate(70,117)"/>
<path d="M0 0 C1.32 0 2.64 0 4 0 C4.10806144 2.91765891 4.18732877 5.83131125 4.25 8.75 C4.30027344 9.9875 4.30027344 9.9875 4.3515625 11.25 C4.45027833 17.37038169 4.45027833 17.37038169 2.17578125 20.55078125 C-0.75648773 22.50387244 -2.54631096 22.51437922 -6 22 C-8.53785617 20.33726664 -8.9318384 19.26644989 -9.6875 16.3125 C-9.790625 15.549375 -9.89375 14.78625 -10 14 C-8.68 14 -7.36 14 -6 14 C-5.01 15.485 -5.01 15.485 -4 17 C-3.01 17 -2.02 17 -1 17 C-0.67 11.39 -0.34 5.78 0 0 Z " fill="#070000" transform="translate(95,82)"/>
<path d="M0 0 C0 0.33 0 0.66 0 1 C-2.64 1.33 -5.28 1.66 -8 2 C-8 2.33 -8 2.66 -8 3 C-8.98097656 3.02578125 -9.96195313 3.0515625 -10.97265625 3.078125 C-19.77101605 3.41411628 -27.56909229 4.66316341 -35.98828125 7.2578125 C-39 8 -39 8 -42 7 C-33.8101761 -3.35597298 -11.49908 -0.39297592 0 0 Z " fill="#281616" transform="translate(114,111)"/>
<path d="M0 0 C0.33 0 0.66 0 1 0 C1.10957031 0.79921875 1.21914063 1.5984375 1.33203125 2.421875 C3.00092311 13.98200397 5.10665562 24.06306413 10.6953125 34.40625 C11.82445382 36.65101 12.52589062 38.54850758 13 41 C10 40 10 40 8.02734375 36.6484375 C7.32033278 35.22908967 6.62413285 33.80431736 5.9375 32.375 C5.58623047 31.67503906 5.23496094 30.97507812 4.87304688 30.25390625 C1.22725899 22.82449352 -0.30869247 16.30746569 -0.125 8.0625 C-0.11597656 7.28326172 -0.10695312 6.50402344 -0.09765625 5.70117188 C-0.07433691 3.80064553 -0.03847586 1.90027992 0 0 Z " fill="#0E0E0E" transform="translate(42,89)"/>
<path d="M0 0 C5.33967762 0.50271774 9.17857446 1.80443914 13.875 4.375 C15.00679687 4.98085938 16.13859375 5.58671875 17.3046875 6.2109375 C20 8 20 8 21 11 C17.34779258 10.29057842 14.35713004 8.76174803 11.0625 7.0625 C7.42402567 5.19036466 3.82470101 3.45803519 0 2 C0 1.34 0 0.68 0 0 Z " fill="#121212" transform="translate(118,35)"/>
<path d="M0 0 C0 0.66 0 1.32 0 2 C0.66 2.33 1.32 2.66 2 3 C-6.7784452 5.04404545 -15.03898756 5.21767642 -24 5 C-20.21123305 1.22158487 -15.93732842 1.24835608 -10.875 0.8125 C-10.05128906 0.73064453 -9.22757813 0.64878906 -8.37890625 0.56445312 C-2.58258929 0 -2.58258929 0 0 0 Z " fill="#393939" transform="translate(118,150)"/>
<path d="M0 0 C0.33 0 0.66 0 1 0 C1.21767642 8.96101244 1.04404545 17.2215548 -1 26 C-1.33 25.34 -1.66 24.68 -2 24 C-2.66 24 -3.32 24 -4 24 C-3.72144822 20.74873648 -3.42487215 17.4993609 -3.125 14.25 C-3.00705078 12.86941406 -3.00705078 12.86941406 -2.88671875 11.4609375 C-2.80292969 10.57148437 -2.71914062 9.68203125 -2.6328125 8.765625 C-2.55949707 7.94868164 -2.48618164 7.13173828 -2.41064453 6.29003906 C-1.97890856 3.88237951 -1.19673616 2.12090608 0 0 Z " fill="#393939" transform="translate(163,85)"/>
<path d="M0 0 C0.93457031 0.00322266 1.86914062 0.00644531 2.83203125 0.00976562 C3.80011719 0.01814453 4.76820312 0.02652344 5.765625 0.03515625 C6.74917969 0.03966797 7.73273438 0.04417969 8.74609375 0.04882812 C11.16933291 0.06059142 13.59244773 0.07702941 16.015625 0.09765625 C16.345625 0.75765625 16.675625 1.41765625 17.015625 2.09765625 C3.650625 2.59265625 3.650625 2.59265625 -9.984375 3.09765625 C-8.984375 1.09765625 -8.984375 1.09765625 -7.23339844 0.47875977 C-4.77724471 0.06255742 -2.49118192 -0.01519013 0 0 Z " fill="#060606" transform="translate(96.984375,123.90234375)"/>
<path d="M0 0 C0.33 0.66 0.66 1.32 1 2 C1.66 2 2.32 2 3 2 C2.75174074 5.29378088 2.47258139 8.58421793 2.1875 11.875 C2.11724609 12.81214844 2.04699219 13.74929687 1.97460938 14.71484375 C1.89404297 15.61074219 1.81347656 16.50664063 1.73046875 17.4296875 C1.66239014 18.25710449 1.59431152 19.08452148 1.52416992 19.93701172 C1 22 1 22 -2 24 C-2.19676277 15.70316995 -2.25943749 8.04924606 0 0 Z " fill="#373737" transform="translate(43,76)"/>
<path d="M0 0 C8.96101244 -0.21767642 17.2215548 -0.04404545 26 2 C25.01 2.495 25.01 2.495 24 3 C24 3.66 24 4.32 24 5 C20.7479935 4.75050033 17.49914423 4.47168823 14.25 4.1875 C13.32960938 4.11724609 12.40921875 4.04699219 11.4609375 3.97460938 C10.57148437 3.89404297 9.68203125 3.81347656 8.765625 3.73046875 C7.54020996 3.62835083 7.54020996 3.62835083 6.29003906 3.52416992 C3.59431328 2.90714186 2.08444317 1.78098508 0 0 Z " fill="#383838" transform="translate(94,32)"/>
<path d="M0 0 C-1 3 -1 3 -3.546875 4.53515625 C-4.60390625 5.03917969 -5.6609375 5.54320312 -6.75 6.0625 C-7.79671875 6.56910156 -8.8434375 7.07570313 -9.921875 7.59765625 C-12.59017143 8.81328876 -15.2661234 9.9418885 -18 11 C-16.52794396 7.16600092 -14.58125389 5.82247836 -11.0625 3.8125 C-10.18722656 3.30332031 -9.31195313 2.79414062 -8.41015625 2.26953125 C-5.43317045 0.7014269 -3.38358248 0 0 0 Z " fill="#171717" transform="translate(83,36)"/>
<path d="M0 0 C-0.53651953 4.03314682 -2.54201208 5.94451681 -5.375 8.75 C-6.16648438 9.54921875 -6.95796875 10.3484375 -7.7734375 11.171875 C-10 13 -10 13 -13 13 C-11.43638038 9.16202456 -8.97489917 6.8332373 -6 4 C-5.278125 3.236875 -4.55625 2.47375 -3.8125 1.6875 C-2 0 -2 0 0 0 Z " fill="#1E1E1E" transform="translate(151,129)"/>
<path d="M0 0 C2.31 0 4.62 0 7 0 C7.38218767 1.65614657 7.71395102 3.32457024 8 5 C7 6 7 6 3.4375 6.0625 C2.303125 6.041875 1.16875 6.02125 0 6 C0 4.02 0 2.04 0 0 Z " fill="#B50000" transform="translate(107,86)"/>
<path d="M0 0 C9.77623457 7.54166667 9.77623457 7.54166667 12 13 C7.89552608 12.48223379 6.04300477 10.35372556 3.25 7.4375 C2.45078125 6.61121094 1.6515625 5.78492188 0.828125 4.93359375 C0.22484375 4.29550781 -0.3784375 3.65742188 -1 3 C-0.67 2.01 -0.34 1.02 0 0 Z " fill="#1E1E1E" transform="translate(55,129)"/>
<path d="M0 0 C3.3 0 6.6 0 10 0 C9.01 1.485 9.01 1.485 8 3 C9.65 3.33 11.3 3.66 13 4 C13 4.33 13 4.66 13 5 C10.69 5 8.38 5 6 5 C5.67 6.32 5.34 7.64 5 9 C3.68 8.67 2.36 8.34 1 8 C1.99 8 2.98 8 4 8 C4 7.01 4 6.02 4 5 C1.36 5 -1.28 5 -4 5 C-4 4.67 -4 4.34 -4 4 C-1.03 4 1.94 4 5 4 C5 3.34 5 2.68 5 2 C3.35 1.67 1.7 1.34 0 1 C0 0.67 0 0.34 0 0 Z " fill="#181214" transform="translate(98,139)"/>
<path d="M0 0 C3.4375 1 3.4375 1 6 2 C6 2.99 6 3.98 6 5 C0.72 4.01 -4.56 3.02 -10 2 C-6.26935156 -0.48709896 -4.42368032 -0.29991053 0 0 Z " fill="#1C1C1C" transform="translate(121,125)"/>
<path d="M0 0 C3.47000311 1.1566677 3.84701459 1.85726716 5.6875 4.875 C6.12449219 5.57367188 6.56148437 6.27234375 7.01171875 6.9921875 C8 9 8 9 8 12 C4.3392481 10.77974937 4.07660559 9.873509 2.3125 6.5625 C1.87550781 5.75941406 1.43851563 4.95632812 0.98828125 4.12890625 C0 2 0 2 0 0 Z " fill="#121212" transform="translate(47,118)"/>
<path d="M0 0 C0.33 0.66 0.66 1.32 1 2 C0.00390625 3.9453125 0.00390625 3.9453125 -1.4375 6.125 C-1.91058594 6.84945312 -2.38367187 7.57390625 -2.87109375 8.3203125 C-3.24363281 8.87460938 -3.61617187 9.42890625 -4 10 C-4.66 9.67 -5.32 9.34 -6 9 C-4.68775452 5.06326356 -3.08089673 2.77280706 0 0 Z " fill="#141414" transform="translate(55,56)"/>
<path d="M0 0 C6.75 0.875 6.75 0.875 9 2 C9 2.99 9 3.98 9 5 C6.03 4.01 3.06 3.02 0 2 C0 1.34 0 0.68 0 0 Z " fill="#191919" transform="translate(118,35)"/>
<path d="M0 0 C0.66 0 1.32 0 2 0 C1.25 6.75 1.25 6.75 -1 9 C-1.66 9 -2.32 9 -3 9 C-2.01 6.03 -1.02 3.06 0 0 Z " fill="#1A1A1A" transform="translate(159,109)"/>
<path d="M0 0 C2.97 0.495 2.97 0.495 6 1 C6 1.99 6 2.98 6 4 C3.36 3.67 0.72 3.34 -2 3 C-1.34 2.67 -0.68 2.34 0 2 C0 1.34 0 0.68 0 0 Z " fill="#353535" transform="translate(87,150)"/>
<path d="M0 0 C0 0.66 0 1.32 0 2 C-1.98 2.33 -3.96 2.66 -6 3 C-6 2.34 -6 1.68 -6 1 C-6.66 0.67 -7.32 0.34 -8 0 C-4.94736336 -0.98120464 -3.05263664 -0.98120464 0 0 Z " fill="#2F2F2F" transform="translate(88,126)"/>
<path d="M0 0 C2.64 0.33 5.28 0.66 8 1 C7.01 1.495 7.01 1.495 6 2 C6 2.66 6 3.32 6 4 C3.36 3.67 0.72 3.34 -2 3 C-1.34 2.01 -0.68 1.02 0 0 Z " fill="#372E2E" transform="translate(115,112)"/>
<path d="M0 0 C0.33 0 0.66 0 1 0 C1.33 2.31 1.66 4.62 2 7 C1.34 7 0.68 7 0 7 C-0.33 7.66 -0.66 8.32 -1 9 C-1.33 6.69 -1.66 4.38 -2 2 C-1.34 2 -0.68 2 0 2 C0 1.34 0 0.68 0 0 Z " fill="#353535" transform="translate(44,102)"/>
<path d="M0 0 C1.74627478 2.61941217 2.38722388 4.03824877 3 7 C2.34 7 1.68 7 1 7 C0.67 7.66 0.34 8.32 0 9 C-1.125 2.25 -1.125 2.25 0 0 Z " fill="#323232" transform="translate(158,68)"/>
</svg>
